<svg width="60" height="60" viewBox="0 0 60 60" fill="none" xmlns="http://www.w3.org/2000/svg">
<path d="M55 12.875V19.625C55 25.25 52.75 27.5 47.125 27.5H40.375C34.75 27.5 32.5 25.25 32.5 19.625V12.875C32.5 7.25 34.75 5 40.375 5H47.125C52.75 5 55 7.25 55 12.875ZM27.5 40.375V47.125C27.5 52.75 25.25 55 19.625 55H12.875C7.25 55 5 52.75 5 47.125V40.375C5 34.75 7.25 32.5 12.875 32.5H19.625C25.25 32.5 27.5 34.75 27.5 40.375Z" stroke="#F7F0F5" stroke-width="3.75" stroke-linecap="round" stroke-linejoin="round"/>
<path d="M43.45 27.4998V34.0498C43.45 40.7748 40.775 43.4498 34.05 43.4498H27.5V40.3748C27.5 34.7498 25.25 32.4998 19.625 32.4998H16.55V25.9498C16.55 19.2248 19.225 16.5498 25.95 16.5498H32.5V19.6248C32.5 25.2498 34.75 27.4998 40.375 27.4998H43.45Z" stroke="#F7F0F5" stroke-width="3.75" stroke-linecap="round" stroke-linejoin="round"/>
</svg>
