<svg width="60" height="60" viewBox="0 0 60 60" fill="none" xmlns="http://www.w3.org/2000/svg">
<path d="M20.0001 15V13C20.0001 8.575 20.0001 5 28.0001 5H32.0001C40.0001 5 40.0001 8.575 40.0001 13V15M20.0001 55H40.0001C50.0501 55 51.8501 50.975 52.3751 46.075L54.2501 26.075C54.9251 19.975 53.175 15 42.5001 15H17.5001C6.82506 15 5.07505 19.975 5.75005 26.075L7.62505 46.075C8.15005 50.975 9.95006 55 20.0001 55Z" stroke="#F7F0F5" stroke-width="3.75" stroke-miterlimit="10" stroke-linecap="round" stroke-linejoin="round"/>
<path d="M35.0001 35.05V32.5C35.0001 30 35.0001 30 32.5001 30H27.5001C25.0001 30 25.0001 30 25.0001 32.5V35.075M35.0001 35.05C35.0001 37.775 34.9751 40 30.0001 40C25.0501 40 25.0001 37.8 25.0001 35.075M35.0001 35.05C41.9106 34.1897 48.4904 31.5922 54.1251 27.5M25.0001 35.075C18.5251 34.35 12.175 32.025 6.55005 28.175" stroke="#F7F0F5" stroke-width="3.75" stroke-miterlimit="10" stroke-linecap="round" stroke-linejoin="round"/>
</svg>
