<svg width="60" height="60" viewBox="0 0 60 60" fill="none" xmlns="http://www.w3.org/2000/svg">
<path d="M26.88 42.1499V47.2249C26.88 51.5249 22.88 54.9999 17.955 54.9999C13.03 54.9999 9.005 51.5249 9.005 47.2249V42.1499C9.005 46.4499 13.005 49.4999 17.955 49.4999C22.88 49.4999 26.88 46.4249 26.88 42.1499Z" stroke="black" stroke-width="3.75" stroke-linecap="round" stroke-linejoin="round"/>
<path d="M26.875 35.2749C26.875 36.5249 26.525 37.6749 25.925 38.6749C24.45 41.0999 21.425 42.6249 17.925 42.6249C14.425 42.6249 11.4 41.0749 9.92498 38.6749C9.32498 37.6749 8.97498 36.5249 8.97498 35.2749C8.97498 33.1249 9.97498 31.1999 11.575 29.7999C13.2 28.3749 15.425 27.5249 17.9 27.5249C20.375 27.5249 22.6 28.3999 24.225 29.7999C25.875 31.1749 26.875 33.1249 26.875 35.2749Z" stroke="#F6EFF4" stroke-width="3.75" stroke-linecap="round" stroke-linejoin="round"/>
<path d="M26.88 35.275V42.15C26.88 46.45 22.88 49.5 17.955 49.5C13.03 49.5 9.005 46.425 9.005 42.15V35.275C9.005 30.975 13.005 27.5 17.955 27.5C20.43 27.5 22.655 28.375 24.28 29.775C25.88 31.175 26.88 33.125 26.88 35.275ZM55 27.425V32.575C55 33.95 53.9 35.075 52.5 35.125H47.6C44.9 35.125 42.425 33.15 42.2 30.45C42.05 28.875 42.65 27.4 43.7 26.375C44.625 25.425 45.9 24.875 47.3 24.875H52.5C53.9 24.925 55 26.05 55 27.425Z" stroke="#F7F0F5" stroke-width="3.75" stroke-linecap="round" stroke-linejoin="round"/>
<path d="M5 26.25V21.25C5 14.45 9.1 9.7 15.475 8.9C16.125 8.8 16.8 8.75 17.5 8.75H40C40.65 8.75 41.275 8.775 41.875 8.875C48.325 9.625 52.5 14.4 52.5 21.25V24.875H47.3C45.9 24.875 44.625 25.425 43.7 26.375C42.65 27.4 42.05 28.875 42.2 30.45C42.425 33.15 44.9 35.125 47.6 35.125H52.5V38.75C52.5 46.25 47.5 51.25 40 51.25H33.75" stroke="#F6EFF4" stroke-width="3.75" stroke-linecap="round" stroke-linejoin="round"/>
</svg>
