<svg width="85" height="85" viewBox="0 0 85 85" fill="none" xmlns="http://www.w3.org/2000/svg">
<path d="M76.7083 37.0417H43.4167V50.1458H62.8958C62.5417 53.3333 60.4167 58.2917 55.8125 61.4792C52.9792 63.6042 48.7292 65.0208 43.4167 65.0208C34.2083 65.0208 26.0625 59 23.2292 50.1458C22.5208 48.0208 22.1667 45.5417 22.1667 43.0625C22.1667 40.5833 22.5208 38.1042 23.2292 35.9792C23.5833 35.2708 23.5833 34.5625 23.9375 34.2083C27.125 26.7708 34.5625 21.4583 43.4167 21.4583C50.1458 21.4583 54.3958 24.2917 57.2292 26.7708L67.1458 16.8542C61.125 11.5417 52.9792 8 43.4167 8C29.6042 8 17.5625 15.7917 11.8958 27.4792C9.41667 32.4375 8 37.75 8 43.4167C8 49.0833 9.41667 54.3958 11.8958 59.3542C17.5625 71.0417 29.6042 78.8333 43.4167 78.8333C52.9792 78.8333 61.125 75.6458 66.7917 70.3333C73.5208 64.3125 77.4167 55.1042 77.4167 44.125C77.4167 41.2917 77.0625 39.1667 76.7083 37.0417Z" stroke="#FAFAFA" stroke-width="3.8" stroke-miterlimit="10" stroke-linecap="round" stroke-linejoin="round"/>
</svg>
