<svg width="85" height="85" viewBox="0 0 85 85" fill="none" xmlns="http://www.w3.org/2000/svg">
<g clip-path="url(#clip0_12_367)">
<path d="M25.4104 15.1672C25.3794 15.1674 25.3484 15.1685 25.3174 15.1705L23.9926 15.2269C23.9716 15.2288 23.9505 15.231 23.9295 15.2336C19.9709 15.5565 16.3313 17.2246 13.5137 19.4371C13.5115 19.4382 13.5093 19.4393 13.5071 19.4404C10.7434 21.631 8.62865 24.2287 6.96274 26.8945C5.28332 29.5595 4.0107 32.3331 2.99164 35.1289C2.9905 35.1344 2.9894 35.14 2.98832 35.1455C1.00278 40.7534 -0.0669492 46.5776 -0.0862782 52.6004C-0.0863122 52.607 -0.0863122 52.6137 -0.0862782 52.6203C-0.0596732 55.7647 0.339181 59.1298 1.65688 62.5016C2.96077 65.876 5.44318 69.4712 9.47291 71.5262H9.47622L9.47954 71.5295C11.4825 72.5578 13.7131 73.0735 15.8711 73.0867C18.3148 73.1398 20.5355 72.4501 22.2893 71.6025C22.2949 71.6003 22.3004 71.5981 22.3059 71.5959C25.743 69.893 28.1224 67.6059 30.1551 65.4533C30.1607 65.4478 30.1662 65.4423 30.1718 65.4367C34.2269 61.0302 37.1983 56.2841 39.9069 51.5512V51.5478C40.8446 49.9171 41.6553 48.2435 42.5001 46.5807C43.3453 48.2444 44.1549 49.9197 45.0932 51.5512C47.8016 56.2822 50.7731 61.03 54.8284 65.4367C54.8339 65.4423 54.8394 65.4478 54.845 65.4533C56.8791 67.6072 59.2565 69.8945 62.6942 71.5959C62.6997 71.5982 62.7053 71.6004 62.7108 71.6026C64.4655 72.4505 66.687 73.1378 69.129 73.0867C71.287 73.0735 73.5176 72.5578 75.5206 71.5295L75.5272 71.5262C79.5535 69.4711 82.0353 65.881 83.3399 62.5082C84.6599 59.1341 85.0598 55.767 85.0864 52.6203C85.0864 52.6137 85.0864 52.607 85.0864 52.6004C85.067 46.5789 83.9954 40.753 82.0118 35.1455C82.0107 35.1411 82.0096 35.1367 82.0085 35.1322C80.9914 32.3367 79.7196 29.5607 78.0407 26.8979C76.3748 24.232 74.2567 21.6343 71.4931 19.4437C71.4909 19.4415 71.4887 19.4393 71.4864 19.4371C68.6688 17.2246 65.0293 15.5565 61.0706 15.2336C61.0507 15.2321 61.0308 15.231 61.0108 15.2303L59.686 15.1705C59.6539 15.1696 59.6218 15.1696 59.5897 15.1705C59.138 15.1755 58.578 15.1782 57.9761 15.2535C56.8662 15.3609 55.8417 15.6039 54.9048 15.8877C54.9003 15.8888 54.8959 15.8899 54.8915 15.891C52.9534 16.495 51.2869 17.3822 49.8413 18.3314C49.8391 18.3336 49.8369 18.3359 49.8347 18.3381C46.9664 20.249 44.7546 22.4868 42.8255 24.6932C42.7047 24.8309 42.6145 24.9551 42.5001 25.0916C42.3866 24.9557 42.2976 24.8303 42.178 24.6932C42.1769 24.6921 42.1758 24.691 42.1747 24.6899C40.2449 22.4864 38.0369 20.2507 35.1688 18.3381C35.1655 18.3359 35.1622 18.3337 35.1589 18.3315C33.7123 17.3828 32.0449 16.495 30.1087 15.891C30.1043 15.8899 30.0998 15.8888 30.0954 15.8877C29.1573 15.6041 28.1327 15.3576 27.0241 15.2502C26.4237 15.1753 25.8612 15.1722 25.4104 15.1672ZM25.4204 18.5705C25.8663 18.5758 26.3087 18.5829 26.6223 18.6236C26.6422 18.6262 26.6621 18.6284 26.6821 18.6303C27.4964 18.7075 28.2988 18.8979 29.1059 19.1416C29.108 19.1422 29.1105 19.1409 29.1126 19.1416C30.6675 19.6289 32.0379 20.3507 33.2928 21.1736C35.8088 22.8533 37.7866 24.8399 39.618 26.931C40.1294 27.518 40.6168 28.1572 41.1487 28.8269C41.1531 28.8325 41.1575 28.838 41.162 28.8435C41.164 28.8461 41.1666 28.8476 41.1686 28.8502C41.1921 28.8786 41.2164 28.9063 41.2417 28.9332C43.6428 31.5776 45.2753 34.4197 46.5674 36.5732C46.6346 36.6873 46.7148 36.7932 46.8065 36.8887C48.6845 40.3342 50.8163 44.2021 52.7897 47.3941C52.7919 47.3986 52.7941 47.403 52.7964 47.4074C55.5263 51.7368 58.4945 56.0029 61.8741 59.5398C61.8763 59.541 61.8785 59.5421 61.8807 59.5432C63.7051 61.435 66.2478 62.91 69.5042 62.91C70.6518 62.91 71.8149 62.7166 72.8776 62.1563C73.9383 61.597 74.8599 60.6191 75.3346 59.3572C76.1205 57.3104 76.4195 54.9808 76.4104 52.617C76.4104 52.6137 76.4104 52.6104 76.4104 52.607C76.3642 47.7351 75.4096 42.734 73.7309 38.1338L73.7276 38.1272C72.0723 33.5347 69.5785 29.1224 66.0876 26.3666C66.0832 26.3633 66.0788 26.3599 66.0743 26.3566C64.323 25.0042 62.3824 24.1635 60.3468 23.976C60.3202 23.9742 60.2937 23.9731 60.2671 23.9727L59.6263 23.9428C59.5809 23.941 59.5355 23.941 59.4901 23.9428C59.394 23.9462 59.1668 23.9472 58.8792 23.9793C58.3469 24.017 57.8988 24.1281 57.5079 24.235C57.4991 24.2382 57.4902 24.2415 57.4814 24.2449C56.5094 24.5276 55.5533 25.0008 54.606 25.6063C54.6049 25.6063 54.6038 25.6063 54.6027 25.6063C52.7048 26.8226 50.9352 28.5109 49.2902 30.3576C48.6609 31.0615 48.1512 31.6783 47.6566 32.217C46.7937 30.8239 45.9073 29.4626 44.6185 27.8774C44.8702 27.5626 45.1269 27.2255 45.3821 26.9344C45.3833 26.9333 45.3844 26.9322 45.3855 26.9311C47.2168 24.8365 49.1965 22.8498 51.7173 21.1703C52.9716 20.3475 54.3417 19.6246 55.9009 19.1383H55.9042C56.7066 18.8959 57.5076 18.7107 58.3214 18.6336C58.3414 18.6318 58.3613 18.6295 58.3812 18.627C58.7043 18.585 59.1563 18.5757 59.6163 18.5705H59.6263L60.795 18.6237H60.7984C63.964 18.8827 67.0421 20.2745 69.3847 22.1133H69.388C71.7852 24.0151 73.654 26.293 75.1587 28.7008C75.1598 28.7019 75.1609 28.703 75.162 28.7041C76.6874 31.1223 77.8571 33.6726 78.811 36.2944C80.6703 41.5556 81.6661 46.9764 81.6864 52.5905V52.6004C81.6864 52.6038 81.6864 52.607 81.6864 52.6104C81.6606 55.4856 81.2978 58.4013 80.1757 61.2697C80.1746 61.272 80.1735 61.2742 80.1724 61.2764C79.1005 64.0505 77.0736 66.9227 73.9767 68.5014C73.9756 68.5014 73.9745 68.5014 73.9734 68.5014C72.4758 69.2712 70.723 69.6813 69.1025 69.6901C69.0925 69.69 69.0826 69.69 69.0726 69.6901C67.325 69.7297 65.5765 69.21 64.1917 68.5412H64.1884C61.2872 67.1024 59.2745 65.1915 57.332 63.1358L57.3287 63.1325C53.539 59.0136 50.7075 54.5087 48.0451 49.8579C48.044 49.8567 48.0429 49.8556 48.0417 49.8545C46.6106 47.3663 45.2957 44.7927 44.0441 42.1979C44.0402 42.1899 44.0347 42.1828 44.0308 42.1747C44.0095 42.1294 43.9863 42.0851 43.9611 42.0418C43.9582 42.0371 43.954 42.0302 43.9511 42.0252C43.9457 42.0163 43.9401 42.0075 43.9345 41.9987C42.7242 39.9669 41.1125 37.2092 39.5251 35.1788C39.484 35.0964 39.4363 35.0176 39.3824 34.943C39.3694 34.9257 39.3554 34.9105 39.3425 34.8932C38.166 33.3193 36.9858 31.7847 35.7101 30.3577C34.065 28.511 32.2955 26.8227 30.3976 25.6063C30.3965 25.6063 30.3954 25.6063 30.3943 25.6063C29.447 25.0009 28.4909 24.5277 27.5189 24.245C27.5134 24.2427 27.5078 24.2405 27.5023 24.2383C27.1021 24.1265 26.6452 24.0128 26.1144 23.976C25.8322 23.9452 25.6052 23.9462 25.5101 23.9428C25.4647 23.941 25.4193 23.941 25.3739 23.9428L24.7331 23.9727C24.7065 23.9732 24.68 23.9743 24.6534 23.976C22.6179 24.1635 20.6764 25.0033 18.9259 26.3567C18.9215 26.36 18.917 26.3633 18.9126 26.3666C15.4192 29.1225 12.9246 33.539 11.2693 38.1338C9.59058 42.734 8.63598 47.7352 8.58979 52.6071C8.58977 52.6104 8.58977 52.6137 8.58979 52.617C8.58253 54.9812 8.88158 57.3137 9.6689 59.3606C9.66965 59.3626 9.66814 59.3652 9.6689 59.3672C10.4519 61.448 11.7034 63.0599 13.3312 63.9127H13.3345L13.3378 63.9161C14.1173 64.3252 15.0272 64.5571 15.9841 64.5768C16.8471 64.6266 17.7312 64.424 18.6669 64.0123C18.6692 64.0101 18.6714 64.0079 18.6736 64.0057C20.6075 63.1425 22.4626 61.5693 24.1654 59.8055C24.1676 59.8033 24.1698 59.8011 24.172 59.7989C27.5494 56.2606 30.5183 51.9988 33.2498 47.6697C33.2531 47.6653 33.2564 47.6609 33.2597 47.6565C34.9568 44.9105 36.5295 42.071 38.1074 39.2229C38.9467 40.4945 39.7689 41.7091 40.5379 43.0014C39.4049 45.3196 38.2396 47.6273 36.9586 49.8545C36.9575 49.8556 36.9563 49.8567 36.9552 49.8578C34.2929 54.5101 31.4614 59.0135 27.6716 63.1324L27.6683 63.1358C25.7262 65.1911 23.7076 67.1034 20.8019 68.5445C19.4172 69.2124 17.6744 69.731 15.931 69.6901C15.92 69.69 15.9089 69.69 15.8978 69.6901C14.2774 69.681 12.5245 69.2712 11.0269 68.5014C11.0258 68.5003 11.0247 68.4992 11.0236 68.4981C7.92761 66.9214 5.8999 64.0506 4.82793 61.2764C4.82682 61.2742 4.82572 61.2719 4.82461 61.2697C3.7025 58.4012 3.33973 55.4856 3.31387 52.6104V52.5904C3.33422 46.9711 4.32641 41.548 6.18927 36.2844C6.19009 36.282 6.19177 36.2801 6.19259 36.2777C7.14732 33.6612 8.31925 31.1192 9.8416 28.7041C9.84271 28.7019 9.84381 28.6997 9.84492 28.6974C11.3512 26.2871 13.218 24.0097 15.6189 22.1066C17.9613 20.2683 21.0402 18.8793 24.2053 18.6203H24.2086L25.4204 18.5705ZM25.4735 27.3427C25.6025 27.3461 25.7233 27.3496 25.7225 27.3494C25.771 27.3559 25.8197 27.3604 25.8686 27.3627C25.9846 27.3691 26.243 27.4187 26.5692 27.5088C27.117 27.6681 27.8256 27.9993 28.5647 28.4717C30.0557 29.428 31.6575 30.9171 33.1733 32.6187C33.1733 32.6198 33.1733 32.6209 33.1733 32.622C34.1167 33.6774 35.0409 34.8918 35.9723 36.1183C34.1563 39.4427 32.323 42.6997 30.3743 45.8535C27.6997 50.0924 24.8349 54.1828 21.7149 57.4514C20.1983 59.0209 18.4976 60.3598 17.2956 60.8978C16.662 61.1765 16.3477 61.2054 16.17 61.1933C16.1379 61.1913 16.1058 61.1902 16.0737 61.19C15.5946 61.1844 15.2753 61.0942 14.9149 60.9045C14.9138 60.9034 14.9127 60.9023 14.9116 60.9012C14.269 60.5656 13.4024 59.6433 12.8464 58.1586C12.8453 58.1541 12.8442 58.1497 12.843 58.1453C12.2697 56.6568 11.9844 54.6965 11.9897 52.6402V52.6336V52.6303C12.0331 48.1847 12.918 43.5342 14.4667 39.2926C14.4678 39.2904 14.4689 39.2882 14.47 39.2859C15.9822 35.0884 18.326 31.167 21.0143 29.0428C22.3463 28.0146 23.6398 27.4889 24.9589 27.366L25.4735 27.3427ZM59.5266 27.3427L60.0413 27.366C61.3579 27.4887 62.6503 28.0139 63.9825 29.0394C66.673 31.1652 69.0173 35.0868 70.5301 39.2859C70.5312 39.2881 70.5323 39.2903 70.5334 39.2926C72.0832 43.5373 72.9682 48.1917 73.0104 52.6402C73.0172 54.6957 72.7342 56.6542 72.1604 58.1453C72.1582 58.1497 72.1559 58.1541 72.1537 58.1586C71.9579 58.6815 71.7076 58.9281 71.2905 59.148C70.8733 59.368 70.2537 59.5099 69.5042 59.5099C67.2113 59.5099 65.7283 58.6327 64.3344 57.189C61.2168 53.9263 58.3517 49.8412 55.6817 45.6078L55.6717 45.5945C53.7276 42.4487 51.5614 38.5228 49.6752 35.0591C50.3363 34.2728 50.8586 33.705 51.8268 32.622C51.8268 32.6209 51.8268 32.6198 51.8268 32.6187C53.3426 30.9171 54.9444 29.4279 56.4354 28.4717L56.4387 28.4683C57.1747 27.9984 57.8814 27.6715 58.4276 27.5121L58.4309 27.5088C58.7614 27.4199 59.025 27.3686 59.1315 27.3627C59.1804 27.3604 59.2291 27.3559 59.2776 27.3494C59.2768 27.3495 59.3976 27.3461 59.5266 27.3427Z" fill="#FAFAFA"/>
</g>
<defs>
<clipPath id="clip0_12_367">
<rect width="85" height="85" fill="white"/>
</clipPath>
</defs>
</svg>
