<svg width="85" height="85" viewBox="0 0 85 85" fill="none" xmlns="http://www.w3.org/2000/svg">
<path d="M60.1021 51.1417C64.9541 51.9563 70.3021 51.1063 74.0562 48.5917C79.05 45.2625 79.05 39.8084 74.0562 36.4792C70.2666 33.9646 64.8479 33.1146 59.9958 33.9646M24.7916 51.1417C19.9396 51.9563 14.5916 51.1063 10.8375 48.5917C5.84373 45.2625 5.84373 39.8084 10.8375 36.4792C14.6271 33.9646 20.0458 33.1146 24.8979 33.9646M63.75 25.3584C63.5271 25.3229 63.3 25.3229 63.0771 25.3584C60.7135 25.2729 58.4757 24.2718 56.8367 22.5667C55.1976 20.8616 54.2857 18.586 54.2937 16.2209C54.2937 11.1563 58.3666 7.08337 63.4312 7.08337C65.8546 7.08337 68.1788 8.04607 69.8924 9.75969C71.606 11.4733 72.5687 13.7975 72.5687 16.2209C72.5622 18.5877 71.6408 20.8603 69.9972 22.5633C68.3535 24.2664 66.1151 25.2679 63.75 25.3584ZM21.1437 25.3584C21.3562 25.323 21.6041 25.323 21.8166 25.3584C24.1802 25.2729 26.418 24.2718 28.057 22.5667C29.6961 20.8616 30.608 18.586 30.6 16.2209C30.6 11.1563 26.5271 7.08337 21.4625 7.08337C19.0391 7.08337 16.7149 8.04607 15.0013 9.75969C13.2877 11.4733 12.325 13.7975 12.325 16.2209C12.3604 21.1792 16.2562 25.1813 21.1437 25.3584ZM42.5 51.8146C42.2771 51.7792 42.05 51.7792 41.8271 51.8146C39.4635 51.7291 37.2257 50.7281 35.5867 49.0229C33.9476 47.3178 33.0357 45.0422 33.0437 42.6771C33.0437 37.6125 37.1166 33.5396 42.1812 33.5396C44.6046 33.5396 46.9288 34.5023 48.6424 36.2159C50.356 37.9295 51.3187 40.2537 51.3187 42.6771C51.2833 47.6355 47.3875 51.673 42.5 51.8146ZM32.1937 62.9709C27.2 66.3 27.2 71.7542 32.1937 75.0834C37.8604 78.873 47.1396 78.873 52.8062 75.0834C57.8 71.7542 57.8 66.3 52.8062 62.9709C47.175 59.2167 37.8604 59.2167 32.1937 62.9709Z" stroke="#FAFAFA" stroke-width="3.8" stroke-linecap="round" stroke-linejoin="round"/>
</svg>
