<svg width="85" height="85" viewBox="0 0 85 85" fill="none" xmlns="http://www.w3.org/2000/svg">
<path d="M8.92504 25.1812H76.0751M30.175 7.4729V24.6854M54.825 7.4729V23.0916M77.9167 53.125V31.875C77.9167 14.1666 70.8334 7.08331 53.125 7.08331H31.875C14.1667 7.08331 7.08337 14.1666 7.08337 31.875V53.125C7.08337 70.8333 14.1667 77.9167 31.875 77.9167H53.125C70.8334 77.9167 77.9167 70.8333 77.9167 53.125Z" stroke="#FAFAFA" stroke-width="3.8" stroke-linecap="round" stroke-linejoin="round"/>
<path d="M34.5312 51.1771V46.9271C34.5312 41.4729 38.3917 39.2417 43.1021 41.9688L46.7854 44.0938L50.4687 46.2188C55.1792 48.9459 55.1792 53.4084 50.4687 56.1354L46.7854 58.2604L43.1021 60.3854C38.3917 63.1125 34.5312 60.8813 34.5312 55.4271V51.1771Z" stroke="#FAFAFA" stroke-width="3.8" stroke-miterlimit="10" stroke-linecap="round" stroke-linejoin="round"/>
</svg>
