<svg width="140" height="97" viewBox="0 0 140 97" fill="none" xmlns="http://www.w3.org/2000/svg">
<path d="M41.8524 0.981201C41.8013 0.981621 41.7502 0.983442 41.6992 0.986662L39.5172 1.07962C39.4825 1.08262 39.4479 1.08626 39.4133 1.09057C32.8931 1.62251 26.8986 4.3699 22.2578 8.01402C22.2542 8.01584 22.2505 8.01766 22.2469 8.01948C17.695 11.6274 14.2118 15.9061 11.468 20.2968C8.70188 24.6862 6.6058 29.2544 4.92734 33.8593C4.92547 33.8684 4.92365 33.8776 4.92188 33.8867C1.65157 43.1232 -0.110334 52.716 -0.14217 62.6359C-0.142226 62.6469 -0.142226 62.6578 -0.14217 62.6687C-0.0983499 67.8478 0.558586 73.3902 2.72892 78.9437C4.87649 84.5016 8.96517 90.4231 15.6024 93.8078H15.6078L15.6133 93.8132C18.9123 95.5069 22.5862 96.3563 26.1406 96.3781C30.1656 96.4656 33.8231 95.3295 36.7117 93.9336C36.7209 93.9299 36.73 93.9263 36.7391 93.9226C42.4001 91.1178 46.3191 87.3508 49.6672 83.8054C49.6764 83.7964 49.6855 83.7873 49.6946 83.7781C56.3736 76.5203 61.2678 68.7032 65.729 60.9078V60.9023C67.2733 58.2164 68.6087 55.4599 70 52.7211C71.3921 55.4614 72.7257 58.2207 74.2711 60.9078C78.732 68.7 83.6262 76.5201 90.3055 83.7781C90.3146 83.7873 90.3237 83.7964 90.3329 83.8055C93.6831 87.353 97.5988 91.1203 103.261 93.9226C103.27 93.9263 103.279 93.93 103.288 93.9336C106.178 95.3302 109.837 96.4623 113.859 96.3781C117.414 96.3563 121.088 95.5069 124.387 93.8133L124.398 93.8078C131.029 90.4229 135.117 84.5098 137.266 78.9547C139.44 73.3972 140.098 67.8514 140.142 62.6687C140.142 62.6578 140.142 62.6469 140.142 62.6359C140.11 52.7182 138.345 43.1225 135.078 33.8867C135.076 33.8794 135.075 33.8721 135.073 33.8648C133.397 29.2603 131.303 24.6881 128.538 20.3023C125.794 15.9116 122.305 11.6329 117.753 8.02496C117.75 8.0213 117.746 8.01766 117.742 8.01402C113.102 4.3699 107.107 1.62251 100.587 1.09057C100.554 1.08816 100.521 1.08634 100.488 1.08511L98.3063 0.986662C98.2535 0.985178 98.2006 0.985178 98.1478 0.986662C97.4038 0.994866 96.4813 0.99929 95.4899 1.12339C93.6619 1.30032 91.9745 1.70047 90.4313 2.16793C90.424 2.16972 90.4167 2.17154 90.4095 2.17339C87.2173 3.16823 84.4725 4.62955 82.0915 6.19292C82.0878 6.19657 82.0842 6.20021 82.0806 6.20387C77.3564 9.3513 73.7133 13.037 70.536 16.6711C70.3372 16.8979 70.1885 17.1024 70.0001 17.3273C69.8131 17.1034 69.6666 16.897 69.4696 16.6711C69.4678 16.6693 69.466 16.6674 69.4641 16.6656C66.2857 13.0364 62.6489 9.3541 57.9251 6.2039C57.9196 6.20023 57.9142 6.19659 57.9087 6.19295C55.5261 4.63039 52.7798 3.16828 49.5907 2.17341C49.5834 2.17156 49.5761 2.16975 49.5689 2.16795C48.0237 1.70083 46.3361 1.29486 44.5103 1.11795C43.5213 0.994643 42.5948 0.989405 41.8524 0.981201ZM41.8688 6.58666C42.6033 6.59534 43.3319 6.6071 43.8485 6.67416C43.8812 6.67839 43.914 6.68203 43.9469 6.68511C45.2882 6.8124 46.6097 7.12586 47.9391 7.52729C47.9425 7.52836 47.9467 7.52623 47.95 7.52729C50.5111 8.32994 52.7683 9.51874 54.8352 10.8742C58.9792 13.6407 62.2367 16.9127 65.2531 20.357C66.0955 21.3238 66.8982 22.3766 67.7742 23.4796C67.7815 23.4888 67.7888 23.4979 67.7961 23.507C67.7995 23.5112 67.8037 23.5137 67.8071 23.5179C67.8457 23.5648 67.8858 23.6104 67.9274 23.6547C71.8821 28.0102 74.571 32.6912 76.6992 36.2382C76.8098 36.4261 76.942 36.6005 77.093 36.7578C80.1861 42.4328 83.6974 48.8034 86.9477 54.0609C86.9513 54.0682 86.9549 54.0755 86.9586 54.0828C91.455 61.2135 96.3438 68.2401 101.91 74.0656C101.914 74.0674 101.917 74.0692 101.921 74.0711C104.926 77.187 109.114 79.6164 114.477 79.6164C116.368 79.6164 118.283 79.2979 120.034 78.375C121.781 77.4539 123.299 75.8433 124.081 73.7648C125.375 70.3936 125.867 66.5565 125.852 62.6633C125.852 62.6578 125.852 62.6523 125.852 62.6469C125.776 54.6226 124.204 46.3854 121.439 38.8086L121.434 38.7976C118.707 31.2335 114.6 23.9663 108.85 19.4273C108.843 19.4218 108.836 19.4163 108.828 19.4109C105.944 17.1833 102.747 15.7986 99.3946 15.4898C99.3509 15.487 99.3071 15.4851 99.2634 15.4844L98.2079 15.4351C98.1332 15.4321 98.0584 15.4321 97.9837 15.4351C97.8253 15.4407 97.4512 15.4424 96.9775 15.4953C96.1008 15.5573 95.3626 15.7403 94.7189 15.9164C94.7042 15.9218 94.6897 15.9272 94.6751 15.9328C93.0742 16.3984 91.4995 17.1778 89.9392 18.175C89.9374 18.175 89.9355 18.175 89.9337 18.175C86.8078 20.1784 83.8932 22.9592 81.1837 26.0008C80.1473 27.1601 79.3077 28.1759 78.4931 29.0633C77.0719 26.7688 75.6119 24.5266 73.4892 21.9156C73.9037 21.3972 74.3266 20.842 74.747 20.3625C74.7488 20.3607 74.7506 20.3589 74.7524 20.357C77.7688 16.9071 81.0295 13.6349 85.1814 10.8688C87.2473 9.51356 89.5039 8.32286 92.072 7.52189H92.0775C93.3991 7.12258 94.7184 6.81761 96.0587 6.69065C96.0916 6.6876 96.1244 6.68393 96.1572 6.67971C96.6894 6.61055 97.4339 6.59523 98.1915 6.58674H98.2079L100.133 6.67424H100.138C105.352 7.10088 110.422 9.39321 114.281 12.4219H114.286C118.234 15.5543 121.312 19.3061 123.791 23.2719C123.793 23.2737 123.794 23.2755 123.796 23.2774C126.309 27.2603 128.235 31.4607 129.806 35.7789C132.869 44.4445 134.509 53.3729 134.542 62.6195V62.6359C134.542 62.6415 134.542 62.6467 134.542 62.6523C134.5 67.388 133.902 72.1903 132.054 76.9148C132.052 76.9185 132.05 76.9221 132.049 76.9258C130.283 81.4948 126.945 86.2255 121.844 88.8258C121.842 88.8258 121.84 88.8258 121.838 88.8258C119.372 90.0938 116.485 90.7692 113.816 90.7836C113.799 90.7835 113.783 90.7835 113.767 90.7836C110.888 90.8489 108.008 89.993 105.727 88.8914H105.722C100.944 86.5216 97.6286 83.3742 94.4291 79.9883L94.4236 79.9828C88.1817 73.1989 83.5182 65.7791 79.133 58.1188C79.1311 58.117 79.1293 58.1151 79.1275 58.1133C76.7704 54.0151 74.6047 49.7762 72.5431 45.5024C72.5367 45.4892 72.5277 45.4775 72.5213 45.4641C72.4862 45.3895 72.4479 45.3165 72.4064 45.2454C72.4017 45.2375 72.3948 45.2261 72.39 45.218C72.381 45.2033 72.3719 45.1887 72.3626 45.1743C70.3692 41.8279 67.7146 37.2858 65.1002 33.9415C65.0324 33.8059 64.9538 33.676 64.865 33.5532C64.8437 33.5247 64.8207 33.4996 64.7994 33.4711C62.8615 30.8787 60.9177 28.3512 58.8166 26.0008C56.1071 22.9592 53.1925 20.1785 50.0666 18.175C50.0647 18.175 50.0629 18.175 50.0611 18.175C48.5009 17.1779 46.9261 16.3985 45.3251 15.9329C45.3161 15.9292 45.307 15.9255 45.2978 15.9219C44.6386 15.7378 43.8861 15.5504 43.0118 15.4899C42.5471 15.4391 42.1732 15.4408 42.0165 15.4352C41.9418 15.4322 41.867 15.4322 41.7923 15.4352L40.7368 15.4844C40.6931 15.4852 40.6493 15.487 40.6056 15.4899C37.253 15.7987 34.0552 17.1819 31.172 19.411C31.1647 19.4164 31.1574 19.4219 31.1502 19.4274C25.3962 23.9664 21.2876 31.2406 18.5611 38.8086C15.7962 46.3854 14.2239 54.6227 14.1478 62.6469C14.1478 62.6523 14.1478 62.6578 14.1478 62.6633C14.1359 66.5573 14.6284 70.399 15.9252 73.7703C15.9264 73.7737 15.9239 73.7779 15.9252 73.7813C17.2148 77.2085 19.2761 79.8634 21.9572 81.268H21.9627L21.9681 81.2735C23.252 81.9473 24.7506 82.3293 26.3267 82.3617C27.7482 82.4438 29.2043 82.1101 30.7455 81.4321C30.7492 81.4284 30.7528 81.4248 30.7564 81.4211C33.9417 79.9993 36.9972 77.4083 39.8018 74.5032C39.8054 74.4995 39.8091 74.4959 39.8127 74.4922C45.3755 68.6645 50.2654 61.6451 54.7643 54.5148C54.7698 54.5076 54.7752 54.5003 54.7807 54.493C57.5759 49.9703 60.1662 45.2933 62.765 40.6024C64.1474 42.6967 65.5016 44.6972 66.7682 46.8258C64.9021 50.6441 62.9827 54.4449 60.8728 58.1133C60.871 58.1151 60.8692 58.1169 60.8674 58.1188C56.4824 65.7814 51.8187 73.1986 45.5768 79.9828L45.5713 79.9883C42.3726 83.3735 39.0478 86.5233 34.2619 88.8969C31.9812 89.9968 29.1106 90.851 26.2393 90.7836C26.2211 90.7834 26.2028 90.7834 26.1846 90.7836C23.5156 90.7686 20.6285 90.0937 18.162 88.8258C18.1601 88.824 18.1583 88.8221 18.1565 88.8203C13.0572 86.2234 9.71741 81.4951 7.95182 76.9258C7.95 76.9221 7.94818 76.9185 7.94636 76.9148C6.09816 72.1902 5.50067 67.388 5.45808 62.6523V62.6195C5.4916 53.3641 7.12579 44.432 10.194 35.7625C10.1954 35.7585 10.1981 35.7554 10.1995 35.7515C11.772 31.4419 13.7022 27.2551 16.2096 23.2773C16.2115 23.2737 16.2133 23.27 16.2151 23.2663C18.696 19.2963 21.7708 15.5453 25.7252 12.4109C29.5833 9.38302 34.6544 7.09525 39.8674 6.6687H39.8729L41.8688 6.58666ZM41.9563 21.0351C42.1688 21.0407 42.3677 21.0463 42.3664 21.046C42.4463 21.0568 42.5266 21.0641 42.6071 21.0679C42.798 21.0785 43.2238 21.1602 43.761 21.3085C44.6632 21.5709 45.8304 22.1165 47.0477 22.8945C49.5034 24.4696 52.1417 26.9223 54.6383 29.7249C54.6383 29.7268 54.6383 29.7286 54.6383 29.7304C56.1921 31.4686 57.7144 33.4688 59.2485 35.489C56.2574 40.9644 53.2378 46.329 50.0281 51.5234C45.623 58.5051 40.9045 65.2422 35.7656 70.6257C33.2678 73.2109 30.4665 75.4161 28.4867 76.3023C27.4432 76.7613 26.9256 76.8088 26.6328 76.789C26.58 76.7857 26.5271 76.7838 26.4742 76.7835C25.6851 76.7743 25.1593 76.6258 24.5656 76.3132C24.5638 76.3114 24.562 76.3096 24.5602 76.3078C23.5019 75.7551 22.0745 74.236 21.1586 71.7906C21.1568 71.7833 21.155 71.776 21.1532 71.7687C20.2088 69.317 19.739 66.0884 19.7477 62.7015V62.6906V62.6851C19.8192 55.363 21.2767 47.7033 23.8274 40.7172C23.8292 40.7135 23.831 40.7099 23.8329 40.7062C26.3235 33.7927 30.1839 27.3338 34.6118 23.8351C36.8056 22.1417 38.9361 21.2758 41.1086 21.0734L41.9563 21.0351ZM98.0438 21.0351L98.8914 21.0734C101.06 21.2754 103.189 22.1405 105.383 23.8296C109.814 27.3309 113.676 33.7901 116.167 40.7062C116.169 40.7098 116.171 40.7135 116.173 40.7171C118.725 47.7084 120.183 55.3745 120.252 62.7015C120.264 66.087 119.797 69.3127 118.852 71.7687C118.849 71.776 118.845 71.7832 118.841 71.7905C118.519 72.6519 118.107 73.0579 117.42 73.4202C116.732 73.7825 115.712 74.0163 114.477 74.0163C110.701 74.0163 108.258 72.5715 105.962 70.1937C100.828 64.8198 96.1087 58.0913 91.7109 51.1187L91.6945 51.0968C88.4924 45.9155 84.9245 39.4493 81.818 33.7444C82.9068 32.4493 83.7671 31.5142 85.3617 29.7304C85.3617 29.7286 85.3617 29.7268 85.3617 29.7249C87.8584 26.9223 90.4967 24.4695 92.9524 22.8945L92.9578 22.889C94.1701 22.115 95.3339 21.5765 96.2336 21.314L96.2391 21.3086C96.7834 21.1621 97.2176 21.0776 97.393 21.0679C97.4735 21.0641 97.5538 21.0568 97.6336 21.0461C97.6324 21.0462 97.8313 21.0407 98.0438 21.0351Z" fill="#69A197"/>
</svg>
